<?xml version="1.0" encoding="utf-8"?>
<!-- Generator: Adobe Illustrator 19.2.0, SVG Export Plug-In . SVG Version: 6.00 Build 0)  -->
<svg version="1.1" id="Layer_1" xmlns="http://www.w3.org/2000/svg" xmlns:xlink="http://www.w3.org/1999/xlink" x="0px" y="0px"
	 viewBox="0 0 44 44" style="enable-background:new 0 0 44 44;" xml:space="preserve">
<style type="text/css">
	.st0{fill:#253D86;}
	.st1{fill:#AE1F23;}
</style>
<path class="st0" d="M30.5,28.3H14.4c-6.1,0-11.1,5-11.1,11.1v4h38.3v-4C41.6,33.3,36.6,28.3,30.5,28.3z"/>
<path class="st1" d="M35,20.2h-0.5c-0.3,0-0.5-0.2-0.5-0.5v-8.1c0-0.3,0.2-0.5,0.5-0.5H35c0.3,0,0.5,0.2,0.5,0.5v8.1
	C35.4,20,35.2,20.2,35,20.2z"/>
<path class="st1" d="M37,15.9c0-1.5-0.5-2.7-1.2-2.9v5.8C36.5,18.6,37,17.4,37,15.9z"/>
<path class="st1" d="M32.3,12.6c-0.4,0-0.8,0.3-0.8,0.8c0,0,0.4,1.2,0.4,2.7c0,1.5-0.4,2.7-0.4,2.7c0,0.4,0.3,0.8,0.8,0.8h1.4v-7
	H32.3z"/>
<path class="st1" d="M8.8,20.2h0.5c0.3,0,0.5-0.2,0.5-0.5v-8.1c0-0.3-0.2-0.5-0.5-0.5H8.8c-0.3,0-0.5,0.2-0.5,0.5v8.1
	C8.4,20,8.6,20.2,8.8,20.2z"/>
<path class="st1" d="M6.8,15.9c0-1.5,0.5-2.7,1.2-2.9v5.8C7.4,18.6,6.8,17.4,6.8,15.9z"/>
<path class="st1" d="M11.5,12.6c0.4,0,0.8,0.3,0.8,0.8c0,0-0.4,1.2-0.4,2.7s0.4,2.7,0.4,2.7c0,0.4-0.3,0.8-0.8,0.8h-1.4v-7H11.5z"/>
<g>
	<path class="st1" d="M17.5,26.2c0-0.2,0.1-0.5,0.2-0.6c-2.8-0.9-5.1-2.8-6.6-5.3H9.7c1.7,3.1,4.5,5.4,7.8,6.5c0-0.1,0-0.2,0-0.2
		V26.2z"/>
</g>
<path class="st1" d="M23.9,27.6h-4.9c-0.6,0-1-0.5-1-1v-0.7c0-0.6,0.5-1,1-1h4.9c0.6,0,1,0.5,1,1v0.7C25,27.2,24.5,27.6,23.9,27.6z"
	/>
<g>
	<g>
		<path class="st0" d="M31,18.9l0-0.2c0,0,0.4-1.1,0.4-2.5c0-1.4-0.4-2.5-0.4-2.6l0-0.2c0-0.6,0.4-1.1,0.9-1.3c-1.5-4.1-5.4-7-10-7
			c-4.6,0-8.5,2.9-10,7c0.5,0.2,0.9,0.7,0.9,1.3l0,0.2c0,0-0.4,1.1-0.4,2.6c0,1.4,0.4,2.5,0.4,2.5l0,0.2c0,0.5-0.2,0.8-0.6,1.1
			c1.1,2.4,3,4.3,5.4,5.4c0.3-0.6,0.9-1,1.6-1h4.5c0.8,0,1.5,0.6,1.7,1.3c2.7-1,4.9-3,6.1-5.6C31.3,19.8,31,19.4,31,18.9z"/>
	</g>
</g>
<path class="st1" d="M21.9,1.6c5.5,0,10.2,3.7,11.7,8.7h1.2c-1.6-5.7-6.8-9.9-12.9-9.9c-6.2,0-11.4,4.2-12.9,9.9h1.2
	C11.7,5.3,16.4,1.6,21.9,1.6z"/>
</svg>
