<?xml version="1.0" encoding="utf-8"?>
<!-- Generator: Adobe Illustrator 19.2.0, SVG Export Plug-In . SVG Version: 6.00 Build 0)  -->
<svg version="1.1" id="Layer_1" xmlns="http://www.w3.org/2000/svg" xmlns:xlink="http://www.w3.org/1999/xlink" x="0px" y="0px"
	 viewBox="0 0 26 33" style="enable-background:new 0 0 26 33;" xml:space="preserve">
<style type="text/css">
	.st0{enable-background:new    ;}
	.st1{fill:#4C85D1;}
</style>
<g class="st0">
	<path class="st1" d="M25.2,27.5c0,1.4-0.4,2.5-1.3,3.4c-0.9,0.8-2,1.2-3.4,1.2H5c-1.4,0-2.6-0.4-3.4-1.2c-0.9-0.8-1.3-1.9-1.3-3.4
		c0-0.6,0-1.2,0.1-1.8c0-0.6,0.1-1.2,0.2-1.9c0.1-0.7,0.3-1.3,0.5-1.9s0.4-1.2,0.8-1.7c0.3-0.6,0.7-1,1.1-1.4s0.9-0.7,1.5-0.9
		c0.6-0.2,1.3-0.4,2-0.4c0.1,0,0.4,0.1,0.7,0.4C7.6,18,8,18.3,8.5,18.6c0.5,0.3,1.1,0.6,1.9,0.8c0.8,0.3,1.6,0.4,2.4,0.4
		s1.6-0.1,2.4-0.4c0.8-0.3,1.4-0.5,1.9-0.8s0.9-0.6,1.3-0.8c0.4-0.3,0.6-0.4,0.7-0.4c0.7,0,1.4,0.1,2,0.4c0.6,0.2,1.1,0.6,1.5,0.9
		c0.4,0.4,0.8,0.9,1.1,1.4c0.3,0.6,0.6,1.1,0.8,1.7s0.3,1.2,0.5,1.9c0.1,0.7,0.2,1.3,0.2,1.9C25.2,26.2,25.2,26.8,25.2,27.5z"/>
</g>
<path class="st1" d="M21.8,11.1c0-0.9-0.3-1.6-0.7-1.7v3.5C21.5,12.7,21.8,12,21.8,11.1z"/>
<path class="st1" d="M20.5,8.3c-0.2,0-0.4,0.2-0.4,0.4v0.4h-0.6c-0.3,0-0.5,0.2-0.5,0.5c0,0,0.2,0.7,0.3,1.7c0,0.9-0.3,1.7-0.3,1.7
	c0,0.3,0.2,0.5,0.5,0.5h0.6c0,0.2,0.2,0.3,0.4,0.3c0.2,0,0.4-0.2,0.4-0.4V8.7C20.9,8.5,20.7,8.3,20.5,8.3z"/>
<path class="st1" d="M3.6,11.1c0-0.9,0.3-1.6,0.7-1.7v3.5C4,12.7,3.6,12,3.6,11.1z"/>
<path class="st1" d="M6.4,9.6c0-0.3-0.2-0.5-0.5-0.5H5.4V8.7c0-0.2-0.2-0.4-0.4-0.4c-0.2,0-0.4,0.2-0.4,0.4v4.6
	c0,0.2,0.2,0.4,0.4,0.4c0.2,0,0.4-0.1,0.4-0.3H6c0.3,0,0.5-0.2,0.5-0.5c0,0-0.3-0.7-0.3-1.7C6.2,10.3,6.4,9.6,6.4,9.6z"/>
<g>
	<path class="st1" d="M10.1,17.8c0-0.1,0.1-0.3,0.1-0.4c-1.7-0.6-3.1-1.7-4-3.2H5.4c1,1.8,2.7,3.3,4.7,3.9V18V17.8z"/>
</g>
<path class="st1" d="M13.9,18.6h-2.7c-0.4,0-0.7-0.3-0.7-0.7v-0.2c0-0.4,0.3-0.7,0.7-0.7h2.7c0.4,0,0.7,0.3,0.7,0.7v0.2
	C14.6,18.3,14.3,18.6,13.9,18.6z"/>
<path class="st1" d="M12.7,2.5c3.3,0,6.2,2.2,7.1,5.3h0.7c-0.9-3.4-4.1-6-7.8-6s-6.9,2.5-7.8,6h0.7C6.6,4.7,9.4,2.5,12.7,2.5z"/>
<g>
	<g>
		<path class="st1" d="M19,8.5L19,8.5c-0.3-0.8-0.8-1.6-1.5-2.2c-1.3-1.3-2.9-2-4.8-2S9.3,5,8,6.3C7.3,7,6.8,7.7,6.5,8.5
			c0.6,0,1,0.5,1,1v0.2c0,0-0.2,0.7-0.2,1.5s0.2,1.5,0.2,1.5v0.2c0,0.5-0.4,0.9-0.8,1c0.8,1.2,2,2.1,3.4,2.6h0.1
			c0.2-0.4,0.6-0.6,1.1-0.6h2.5c0.8,0,1.4,0.6,1.4,1.4v0.1c0.9-0.3,1.7-0.8,2.4-1.6c0.6-0.6,1-1.3,1.4-2c-0.5,0-1-0.5-1-1v-0.2
			c0,0,0.2-0.7,0.2-1.5S18,9.6,18,9.6V9.4C18,9,18.4,8.5,19,8.5z"/>
	</g>
</g>
</svg>
