<?xml version="1.0" encoding="utf-8"?>
<!-- Generator: Adobe Illustrator 19.2.0, SVG Export Plug-In . SVG Version: 6.00 Build 0)  -->
<svg version="1.1" id="Layer_1" xmlns="http://www.w3.org/2000/svg" xmlns:xlink="http://www.w3.org/1999/xlink" x="0px" y="0px"
	 viewBox="0 0 22 27" style="enable-background:new 0 0 22 27;" xml:space="preserve">
<style type="text/css">
	.st0{enable-background:new    ;}
	.st1{fill:#6F7E9D;}
	.st2{fill:#AD1F23;}
</style>
<g class="st0">
	<path class="st1" d="M21.5,23c0,1.2-0.4,2.2-1.1,2.9c-0.7,0.7-1.7,1.1-3,1.1H4.1c-1.2,0-2.2-0.4-3-1.1C0.4,25.2,0,24.3,0,23
		c0-0.5,0-1.1,0.1-1.6c0-0.5,0.1-1.1,0.2-1.7c0.1-0.6,0.2-1.1,0.4-1.7s0.4-1,0.7-1.5c0.3-0.5,0.6-0.9,0.9-1.2
		c0.4-0.3,0.8-0.6,1.3-0.8c0.5-0.2,1.1-0.3,1.7-0.3c0.1,0,0.3,0.1,0.6,0.3c0.3,0.2,0.7,0.5,1.1,0.7c0.4,0.3,1,0.5,1.7,0.7
		c0.7,0.2,1.4,0.3,2,0.3s1.4-0.1,2-0.3c0.7-0.2,1.2-0.5,1.7-0.7c0.4-0.3,0.8-0.5,1.1-0.7c0.3-0.2,0.6-0.3,0.6-0.3
		c0.6,0,1.2,0.1,1.7,0.3c0.5,0.2,1,0.5,1.3,0.8c0.4,0.3,0.7,0.8,0.9,1.2c0.3,0.5,0.5,1,0.7,1.5s0.3,1.1,0.4,1.7
		c0.1,0.6,0.2,1.2,0.2,1.7C21.5,22,21.5,22.5,21.5,23z"/>
</g>
<path class="st2" d="M18.6,8.9c0-0.8-0.3-1.4-0.6-1.5v3C18.3,10.3,18.6,9.7,18.6,8.9z"/>
<path class="st2" d="M17.4,6.4c-0.2,0-0.4,0.2-0.4,0.4v0.4h-0.5c-0.2,0-0.4,0.2-0.4,0.4c0,0,0.2,0.6,0.2,1.4c0,0.8-0.2,1.4-0.2,1.4
	c0,0.2,0.2,0.4,0.4,0.4h0.5c0,0.2,0.2,0.3,0.3,0.3c0.2,0,0.4-0.2,0.4-0.4v-4C17.8,6.6,17.6,6.4,17.4,6.4z"/>
<path class="st2" d="M2.9,8.9c0-0.8,0.3-1.4,0.6-1.5v3C3.2,10.3,2.9,9.7,2.9,8.9z"/>
<path class="st2" d="M5.3,7.6c0-0.2-0.2-0.4-0.4-0.4H4.4V6.8c0-0.2-0.2-0.4-0.4-0.4c-0.2,0-0.4,0.2-0.4,0.4v4c0,0.2,0.2,0.4,0.4,0.4
	c0.2,0,0.3-0.1,0.3-0.3h0.5c0.2,0,0.4-0.2,0.4-0.4c0,0-0.2-0.6-0.2-1.4C5.1,8.2,5.3,7.6,5.3,7.6z"/>
<g>
	<path class="st2" d="M8.4,14.6c0-0.1,0-0.2,0.1-0.3c-1.5-0.5-2.7-1.5-3.5-2.7H4.4c0.9,1.6,2.3,2.8,4.1,3.4c0,0,0-0.1,0-0.1V14.6z"
		/>
</g>
<path class="st2" d="M11.6,15.4H9.4c-0.4,0-0.7-0.3-0.7-0.7v0C8.7,14.3,9,14,9.4,14h2.2c0.4,0,0.7,0.3,0.7,0.7v0
	C12.3,15.1,12,15.4,11.6,15.4z"/>
<path class="st2" d="M10.7,1.4c2.9,0,5.3,1.9,6.1,4.6h0.6c-0.8-3-3.5-5.2-6.7-5.2C7.5,0.8,4.8,3,4,6h0.6C5.4,3.4,7.9,1.4,10.7,1.4z"
	/>
<g>
	<g>
		<path class="st1" d="M16.2,6.7L16.2,6.7c-0.2-0.7-0.7-1.4-1.3-1.9C13.8,3.6,12.4,3,10.8,3s-3,0.6-4.2,1.7C6,5.3,5.6,6,5.3,6.7
			c0.5,0,0.9,0.4,0.9,0.9l0,0.2C6.2,7.7,6,8.3,6,9c0,0.7,0.2,1.3,0.2,1.3l0,0.2c0,0.4-0.3,0.8-0.7,0.9c0.7,1,1.7,1.8,2.9,2.3l0.1,0
			c0.2-0.3,0.6-0.5,1-0.5h2.2c0.7,0,1.2,0.5,1.2,1.2c0,0,0,0.1,0,0.1c0.8-0.3,1.5-0.7,2.1-1.4c0.5-0.5,0.9-1.1,1.2-1.7
			c-0.5,0-0.8-0.4-0.8-0.9l0-0.2c0,0,0.2-0.6,0.2-1.3c0-0.7-0.2-1.3-0.2-1.3l0-0.2C15.3,7.1,15.7,6.7,16.2,6.7z"/>
	</g>
</g>
</svg>
