<?xml version="1.0" encoding="utf-8"?>
<!-- Generator: Adobe Illustrator 19.2.0, SVG Export Plug-In . SVG Version: 6.00 Build 0)  -->
<svg version="1.1" id="Layer_1" xmlns="http://www.w3.org/2000/svg" xmlns:xlink="http://www.w3.org/1999/xlink" x="0px" y="0px"
	 viewBox="0 0 26 33" style="enable-background:new 0 0 26 33;" xml:space="preserve">
<style type="text/css">
	.st0{enable-background:new    ;}
	.st1{fill:#707E9D;}
</style>
<g class="st0">
	<path class="st1" d="M25.9,25.9c0,1.5-0.4,2.6-1.3,3.5c-0.9,0.8-2.1,1.3-3.6,1.3H5c-1.5,0-2.7-0.4-3.6-1.3c-0.9-0.8-1.3-2-1.3-3.5
		c0-0.6,0-1.3,0.1-1.9c0-0.6,0.1-1.3,0.3-2c0.1-0.7,0.3-1.4,0.5-2s0.5-1.2,0.8-1.8c0.3-0.6,0.7-1.1,1.1-1.5c0.4-0.4,0.9-0.7,1.6-1
		c0.6-0.2,1.3-0.4,2-0.4c0.1,0,0.4,0.1,0.8,0.4c0.4,0.3,0.9,0.6,1.4,0.9c0.5,0.3,1.2,0.6,2,0.9c0.8,0.3,1.6,0.4,2.4,0.4
		c0.8,0,1.6-0.1,2.4-0.4c0.8-0.3,1.5-0.6,2-0.9c0.5-0.3,1-0.6,1.4-0.9c0.4-0.3,0.7-0.4,0.8-0.4c0.7,0,1.4,0.1,2,0.4
		c0.6,0.2,1.1,0.6,1.6,1c0.4,0.4,0.8,0.9,1.1,1.5c0.3,0.6,0.6,1.2,0.8,1.8s0.4,1.3,0.5,2c0.1,0.7,0.2,1.4,0.3,2
		C25.9,24.6,25.9,25.3,25.9,25.9z M18,4.6c1.4,1.4,2.1,3,2.1,5s-0.7,3.6-2.1,5c-1.4,1.4-3,2.1-5,2.1c-1.9,0-3.6-0.7-5-2.1
		c-1.4-1.4-2.1-3-2.1-5s0.7-3.6,2.1-5c1.4-1.4,3-2.1,5-2.1C14.9,2.5,16.6,3.2,18,4.6z"/>
</g>
</svg>
